<?xml version="1.0" encoding="iso-8859-1"?>
<!-- Uploaded to: SVG Repo, www.svgrepo.com, Generator: SVG Repo Mixer Tools -->
<svg fill="#000000" version="1.1" id="Layer_1" xmlns="http://www.w3.org/2000/svg" xmlns:xlink="http://www.w3.org/1999/xlink" 
	 viewBox="0 0 496 496" xml:space="preserve">
<g>
	<g>
		<g>
			<path d="M240,349.656h16c8.824,0,16,7.176,16,16h16c0-17.648-14.352-32-32-32v-16h-16v16c-17.648,0-32,14.352-32,32
				s14.352,32,32,32h16c8.824,0,16,7.176,16,16c0,8.824-7.176,16-16,16h-16c-8.824,0-16-7.176-16-16h-16c0,17.648,14.352,32,32,32
				v16h16v-16c17.648,0,32-14.352,32-32s-14.352-32-32-32h-16c-8.824,0-16-7.176-16-16C224,356.832,231.176,349.656,240,349.656z"/>
			<path d="M352,133.656l45.216,33.912L308,304.856c-12.352-8.76-26.664-14.864-42.168-17.56l44.08-176.304l58.432,11.688L248,2.344
				L127.656,122.68l58.432-11.688l44.08,176.304c-15.504,2.696-29.816,8.8-42.168,17.56L98.784,167.568L144,133.656H0v152
				l33.8-45.064l129.528,88.896C151.208,346.496,144,367.232,144,389.656c0,57.344,46.656,104,104,104s104-46.656,104-104
				c0-22.424-7.208-43.16-19.328-60.168L462.2,240.592l33.8,45.064v-152H352z M197.912,92.32l-21.568,4.312L248,24.968
				l71.656,71.664l-21.568-4.312l-48.352,193.424c-0.584-0.008-1.152-0.088-1.736-0.088c-0.584,0-1.152,0.08-1.736,0.088
				L197.912,92.32z M30.2,218.72L16,237.656v-88h80l-18.784,14.088l98.384,151.4c-0.672,0.656-1.344,1.312-2,1.992L30.2,218.72z
				 M336,389.656c0,48.52-39.48,88-88,88s-88-39.48-88-88c0-48.52,39.48-88,88-88S336,341.136,336,389.656z M480,237.656
				l-14.2-18.936l-143.4,98.416c-0.656-0.672-1.328-1.336-2-1.992l98.384-151.408L400,149.656h80V237.656z"/>
			<rect x="304" y="381.656" width="16" height="16"/>
			<rect x="176" y="381.656" width="16" height="16"/>
		</g>
	</g>
</g>
</svg>